HIERARCHY
ROOT Hips
{
	OFFSET 1.424338 0.179365 3.949874
	CHANNELS 6 Xposition Yposition Zposition Zrotation Yrotation Xrotation 
	JOINT Spine
	{
		OFFSET -0.000016 8.340372 -2.713941
		CHANNELS 3 Zrotation Yrotation Xrotation
		JOINT Spine1
		{
			OFFSET 0.000009 11.909914 -2.100016
			CHANNELS 3 Zrotation Yrotation Xrotation
			JOINT Spine2
			{
				OFFSET -0.000022 12.047706 -1.054058
				CHANNELS 3 Zrotation Yrotation Xrotation
				JOINT Spine3
				{
					OFFSET -0.000065 12.093719 -0.000015
					CHANNELS 3 Zrotation Yrotation Xrotation
					JOINT Neck
					{
						OFFSET 0.000018 15.549128 1.554883
						CHANNELS 3 Zrotation Yrotation Xrotation
						JOINT Neck1
						{
							OFFSET 0.000063 4.687300 0.410094
							CHANNELS 3 Zrotation Yrotation Xrotation
							JOINT Head
							{
								OFFSET 0.000055 4.633841 0.816996
								CHANNELS 3 Zrotation Yrotation Xrotation
								JOINT HeadEnd
								{
									OFFSET 0.000013 9.727667 -0.000059
									CHANNELS 3 Zrotation Yrotation Xrotation
									End Site
									{
										OFFSET 0.000000 0.000000 0.000000
									}
								}
							}
						}
					}
					JOINT RightShoulder
					{
						OFFSET 0.000024 11.106426 6.072613
						CHANNELS 3 Zrotation Yrotation Xrotation
						JOINT RightArm
						{
							OFFSET -19.427952 0.000000 0.000017
							CHANNELS 3 Zrotation Yrotation Xrotation
							JOINT RightForeArm
							{
								OFFSET -29.350705 0.000004 -0.000070
								CHANNELS 3 Zrotation Yrotation Xrotation
								JOINT RightHand
								{
									OFFSET -27.018076 -0.000041 -0.000036
									CHANNELS 3 Zrotation Yrotation Xrotation
									JOINT RightHandMiddle1
									{
										OFFSET -9.244054 -0.000006 0.000002
										CHANNELS 3 Zrotation Yrotation Xrotation
										JOINT RightHandMiddle2
										{
											OFFSET -4.870014 -0.000017 0.000043
											CHANNELS 3 Zrotation Yrotation Xrotation
											JOINT RightHandMiddle3
											{
												OFFSET -3.169053 -0.000003 -0.000000
												CHANNELS 3 Zrotation Yrotation Xrotation
												JOINT RightHandMiddle4
												{
													OFFSET -1.888358 0.000027 -0.000044
													CHANNELS 3 Zrotation Yrotation Xrotation
													End Site
													{
														OFFSET 0.000000 0.000000 0.000000
													}
												}
											}
										}
									}
									JOINT RightHandRing
									{
										OFFSET -0.250009 -0.249981 -0.956500
										CHANNELS 3 Zrotation Yrotation Xrotation
										JOINT RightHandRing1
										{
											OFFSET -8.140181 -0.000007 -0.734583
											CHANNELS 3 Zrotation Yrotation Xrotation
											JOINT RightHandRing2
											{
												OFFSET -4.501536 0.000016 -0.406256
												CHANNELS 3 Zrotation Yrotation Xrotation
												JOINT RightHandRing3
												{
													OFFSET -3.068855 -0.000008 -0.276941
													CHANNELS 3 Zrotation Yrotation Xrotation
													JOINT RightHandRing4
													{
														OFFSET -1.869945 0.000020 -0.168755
														CHANNELS 3 Zrotation Yrotation Xrotation
														End Site
														{
															OFFSET 0.000000 0.000000 0.000000
														}
													}
												}
											}
										}
										JOINT RightHandPinky
										{
											OFFSET -0.163008 -0.250032 -0.975112
											CHANNELS 3 Zrotation Yrotation Xrotation
											JOINT RightHandPinky1
											{
												OFFSET -6.681489 0.000023 -1.494091
												CHANNELS 3 Zrotation Yrotation Xrotation
												JOINT RightHandPinky2
												{
													OFFSET -3.580945 -0.000009 -0.800768
													CHANNELS 3 Zrotation Yrotation Xrotation
													JOINT RightHandPinky3
													{
														OFFSET -2.276481 0.000022 -0.509076
														CHANNELS 3 Zrotation Yrotation Xrotation
														JOINT RightHandPinky4
														{
															OFFSET -1.690361 0.000027 -0.378017
															CHANNELS 3 Zrotation Yrotation Xrotation
															End Site
															{
																OFFSET 0.000000 0.000000 0.000000
															}
														}
													}
												}
											}
										}
									}
									JOINT RightHandIndex
									{
										OFFSET -0.250015 -0.250005 0.956494
										CHANNELS 3 Zrotation Yrotation Xrotation
										JOINT RightHandIndex1
										{
											OFFSET -8.934108 0.000018 0.806270
											CHANNELS 3 Zrotation Yrotation Xrotation
											JOINT RightHandIndex2
											{
												OFFSET -4.694673 0.000041 0.423684
												CHANNELS 3 Zrotation Yrotation Xrotation
												JOINT RightHandIndex3
												{
													OFFSET -2.811733 0.000000 0.253754
													CHANNELS 3 Zrotation Yrotation Xrotation
													JOINT RightHandIndex4
													{
														OFFSET -1.709959 -0.000025 0.154313
														CHANNELS 3 Zrotation Yrotation Xrotation
														End Site
														{
															OFFSET 0.000000 0.000000 0.000000
														}
													}
												}
											}
										}
										JOINT RightHandThumb1
										{
											OFFSET -0.163039 -0.750023 0.975093
											CHANNELS 3 Zrotation Yrotation Xrotation
											JOINT RightHandThumb2
											{
												OFFSET -5.411657 0.835521 2.244706
												CHANNELS 3 Zrotation Yrotation Xrotation
												JOINT RightHandThumb3
												{
													OFFSET -3.567183 0.550767 1.479601
													CHANNELS 3 Zrotation Yrotation Xrotation
													JOINT RightHandThumb4
													{
														OFFSET -2.150549 0.332021 0.892032
														CHANNELS 3 Zrotation Yrotation Xrotation
														End Site
														{
															OFFSET 0.000000 0.000000 0.000000
														}
													}
												}
											}
										}
									}
								}
							}
						}
					}
					JOINT LeftShoulder
					{
						OFFSET -0.000005 11.106400 6.072616
						CHANNELS 3 Zrotation Yrotation Xrotation
						JOINT LeftArm
						{
							OFFSET 19.427857 -0.000054 -0.000033
							CHANNELS 3 Zrotation Yrotation Xrotation
							JOINT LeftForeArm
							{
								OFFSET 29.350744 -0.000028 0.000029
								CHANNELS 3 Zrotation Yrotation Xrotation
								JOINT LeftHand
								{
									OFFSET 27.018149 -0.000015 -0.000048
									CHANNELS 3 Zrotation Yrotation Xrotation
									JOINT LeftHandMiddle1
									{
										OFFSET 9.402690 -0.000014 0.000002
										CHANNELS 3 Zrotation Yrotation Xrotation
										JOINT LeftHandMiddle2
										{
											OFFSET 4.950082 0.000004 0.000035
											CHANNELS 3 Zrotation Yrotation Xrotation
											JOINT LeftHandMiddle3
											{
												OFFSET 3.211970 -0.000017 -0.000037
												CHANNELS 3 Zrotation Yrotation Xrotation
												JOINT LeftHandMiddle4
												{
													OFFSET 1.927596 0.000009 -0.000089
													CHANNELS 3 Zrotation Yrotation Xrotation
													End Site
													{
														OFFSET 0.000000 0.000000 0.000000
													}
												}
											}
										}
									}
									JOINT LeftHandRing
									{
										OFFSET 0.249970 -0.250001 -0.906153
										CHANNELS 3 Zrotation Yrotation Xrotation
										JOINT LeftHandRing1
										{
											OFFSET 8.286076 0.000032 -0.747786
											CHANNELS 3 Zrotation Yrotation Xrotation
											JOINT LeftHandRing2
											{
												OFFSET 4.585445 -0.000014 -0.413802
												CHANNELS 3 Zrotation Yrotation Xrotation
												JOINT LeftHandRing3
												{
													OFFSET 3.124417 0.000018 -0.281963
													CHANNELS 3 Zrotation Yrotation Xrotation
													JOINT LeftHandRing4
													{
														OFFSET 1.908769 -0.000043 -0.172239
														CHANNELS 3 Zrotation Yrotation Xrotation
														End Site
														{
															OFFSET 0.000000 0.000000 0.000000
														}
													}
												}
											}
										}
										JOINT LeftHandPinky
										{
											OFFSET 0.167545 -0.250025 -0.924988
											CHANNELS 3 Zrotation Yrotation Xrotation
											JOINT LeftHandPinky1
											{
												OFFSET 6.823476 0.000010 -1.525878
												CHANNELS 3 Zrotation Yrotation Xrotation
												JOINT LeftHandPinky2
												{
													OFFSET 3.642833 0.000010 -0.814597
													CHANNELS 3 Zrotation Yrotation Xrotation
													JOINT LeftHandPinky3
													{
														OFFSET 2.333100 -0.000022 -0.521747
														CHANNELS 3 Zrotation Yrotation Xrotation
														JOINT LeftHandPinky4
														{
															OFFSET 1.725453 0.000000 -0.385856
															CHANNELS 3 Zrotation Yrotation Xrotation
															End Site
															{
																OFFSET 0.000000 0.000000 0.000000
															}
														}
													}
												}
											}
										}
									}
									JOINT LeftHandIndex
									{
										OFFSET 0.250038 -0.250007 0.906160
										CHANNELS 3 Zrotation Yrotation Xrotation
										JOINT LeftHandIndex1
										{
											OFFSET 9.087992 -0.000016 0.820122
											CHANNELS 3 Zrotation Yrotation Xrotation
											JOINT LeftHandIndex2
											{
												OFFSET 4.776554 0.000020 0.431079
												CHANNELS 3 Zrotation Yrotation Xrotation
												JOINT LeftHandIndex3
												{
													OFFSET 2.865133 0.000016 0.258600
													CHANNELS 3 Zrotation Yrotation Xrotation
													JOINT LeftHandIndex4
													{
														OFFSET 1.745475 0.000006 0.157509
														CHANNELS 3 Zrotation Yrotation Xrotation
														End Site
														{
															OFFSET 0.000000 0.000000 0.000000
														}
													}
												}
											}
										}
										JOINT LeftHandThumb1
										{
											OFFSET 0.167536 -0.749991 0.924974
											CHANNELS 3 Zrotation Yrotation Xrotation
											JOINT LeftHandThumb2
											{
												OFFSET 5.551432 0.857133 2.302683
												CHANNELS 3 Zrotation Yrotation Xrotation
												JOINT LeftHandThumb3
												{
													OFFSET 3.625648 0.559769 1.503866
													CHANNELS 3 Zrotation Yrotation Xrotation
													JOINT LeftHandThumb4
													{
														OFFSET 2.195248 0.338951 0.910564
														CHANNELS 3 Zrotation Yrotation Xrotation
														End Site
														{
															OFFSET 0.000000 0.000000 0.000000
														}
													}
												}
											}
										}
									}
								}
							}
						}
					}
				}
			}
		}
	}
	JOINT RightUpLeg
	{
		OFFSET -8.786514 0.000015 0.000011
		CHANNELS 3 Zrotation Yrotation Xrotation
		JOINT RightLeg
		{
			OFFSET -0.000061 -42.170437 -0.000043
			CHANNELS 3 Zrotation Yrotation Xrotation
			JOINT RightFoot
			{
				OFFSET 0.000031 -45.949144 -0.000044
				CHANNELS 3 Zrotation Yrotation Xrotation
				JOINT RightForeFoot
				{
					OFFSET 0.000012 -4.685801 -0.000003
					CHANNELS 3 Zrotation Yrotation Xrotation
					JOINT RightToeBase
					{
						OFFSET 0.000005 -0.000001 18.351048
						CHANNELS 3 Zrotation Yrotation Xrotation
						JOINT RightToeBaseEnd
						{
							OFFSET 0.000097 -0.000041 6.416924
							CHANNELS 3 Zrotation Yrotation Xrotation
							End Site
							{
								OFFSET 0.000000 0.000000 0.000000
							}
						}
					}
				}
			}
		}
	}
	JOINT LeftUpLeg
	{
		OFFSET 8.786523 0.000020 0.000000
		CHANNELS 3 Zrotation Yrotation Xrotation
		JOINT LeftLeg
		{
			OFFSET -0.000014 -42.170431 0.000027
			CHANNELS 3 Zrotation Yrotation Xrotation
			JOINT LeftFoot
			{
				OFFSET 0.000020 -45.949171 -0.000049
				CHANNELS 3 Zrotation Yrotation Xrotation
				JOINT LeftForeFoot
				{
					OFFSET 0.000009 -4.685787 -0.000010
					CHANNELS 3 Zrotation Yrotation Xrotation
					JOINT LeftToeBase
					{
						OFFSET 0.000028 -0.000003 18.351123
						CHANNELS 3 Zrotation Yrotation Xrotation
						JOINT LeftToeBaseEnd
						{
							OFFSET 0.000016 0.000023 7.522026
							CHANNELS 3 Zrotation Yrotation Xrotation
							End Site
							{
								OFFSET 0.000000 0.000000 0.000000
							}
						}
					}
				}
			}
		}
	}
}
MOTION
Frames: 4
Frame Time: 0.066667
1.424338 0.179365 3.949874 -7.603492 17.233238 2.771197 9.474235 -1.342373 0.128083 -0.081758 -0.164127 -2.888255 -0.079357 0.218682 -1.976502 1.163594 0.678979 6.617424 3.723598 0.930755 6.333259 -8.477098 5.089822 1.474864 -5.263156 1.246818 2.031906 -0.002789 -0.003802 -0.001091 7.359640 -12.546099 -1.627818 68.738487 -3.986632 35.403194 179.994614 65.248619 175.273941 -17.209545 -14.693022 0.044457 38.684555 -7.644157 -0.001297 42.761456 0.000614 0.000024 23.097364 -0.000485 0.002897 0.001581 -0.002680 -0.001675 -1.675370 -1.623648 -5.542400 44.945240 -4.452779 -3.639993 50.348381 1.882026 -3.985112 20.976122 0.346692 -1.852111 0.000905 -0.000497 -0.000381 -2.652087 -4.746021 -4.909313 32.858986 5.142103 -7.052822 54.318886 5.395385 -10.468780 37.734390 2.701792 -7.865273 -0.000616 -0.000041 -0.000937 -0.311703 7.455728 -1.495116 26.485014 -13.753616 2.401671 30.159487 -0.681955 2.598663 23.554573 -0.424472 2.067009 0.000493 0.000601 -0.000061 7.377466 3.206324 51.341293 4.008617 -4.648098 0.901290 12.882248 -8.667128 3.211708 -0.003088 0.001369 0.000240 -11.039089 7.726325 -1.503971 -60.781467 6.831654 38.187908 179.999573 -51.917175 -176.862106 6.379310 26.522709 0.179042 -31.548429 2.213754 -0.000930 -36.846050 -0.001339 -0.000652 -22.377390 0.001123 0.000190 0.001089 -0.000337 -0.000969 -0.087784 0.381548 -10.620161 -21.363262 3.325875 -1.877147 -44.884407 -1.520758 -3.647664 -12.103282 -0.116336 -1.085258 -0.000083 0.001195 0.001253 0.472185 0.573169 -7.855183 -9.472068 8.437252 -2.067356 -36.815918 -2.576944 -7.703982 -29.541956 -1.662405 -6.332800 0.001203 0.001881 0.001858 1.068732 -6.915254 -4.748353 -28.493177 9.729884 2.542994 -25.042376 0.484893 2.191980 -15.144537 0.169774 1.353002 0.001849 0.001298 -0.000944 -11.482350 8.341992 51.002449 -0.767722 6.345843 -0.551475 0.000000 0.000000 0.000000 -0.001789 0.000201 -0.000986 5.531167 -4.089602 0.850007 0.000088 0.000894 1.461827 0.000000 0.000000 -0.000000 -0.000000 0.000000 0.000000 -0.000000 0.000000 0.000000 0.000000 0.000000 0.000000 13.960158 -8.867015 0.900417 0.000507 0.001163 0.549400 -0.000000 -0.000000 -0.000000 0.000000 0.000000 0.000000 0.000000 -0.000000 0.000000 -0.000000 0.000000 -0.000000 
1.262175 0.180117 4.131924 -7.631403 17.586849 2.672928 9.336364 -1.352780 -0.104180 -0.113115 -0.153146 -2.903725 -0.117356 0.265599 -2.025907 1.140570 0.692705 6.558357 3.767299 0.750992 7.032142 -8.412445 4.944456 1.394172 -5.214533 1.231650 1.941341 -0.002698 -0.004016 -0.001196 7.461620 -12.416759 -1.628455 67.977112 -1.414491 29.111183 179.995010 62.367634 169.281021 -10.440947 -16.719749 0.064618 38.837456 -7.741000 -0.002106 43.009804 0.000437 0.000059 22.987186 -0.000487 0.002816 0.001128 -0.002761 -0.001777 -1.717295 -1.622315 -5.330880 45.147858 -4.381608 -3.652642 50.498196 1.892746 -3.993644 20.907957 0.344569 -1.846198 0.000879 -0.000253 -0.000004 -2.645270 -4.769399 -4.924597 32.910053 5.285780 -7.067547 54.441982 5.420599 -10.485644 37.906242 2.725538 -7.895934 -0.000385 -0.000074 -0.000736 -0.276202 7.440593 -1.411090 26.902300 -13.831390 2.438652 30.591805 -0.701670 2.632412 23.751545 -0.432344 2.082749 0.000678 0.000776 0.000007 7.324051 3.062326 51.528477 4.139742 -4.756034 0.931709 13.109751 -8.826264 3.253479 -0.002861 0.001090 -0.000132 -10.751918 7.669229 -1.452314 -60.619190 2.996621 32.792137 179.998886 -49.915493 179.766083 1.079715 24.690613 0.044627 -31.753540 2.289069 -0.001365 -36.897430 -0.001279 -0.000706 -22.270294 0.001086 -0.000249 0.000899 -0.000137 -0.000941 -0.060920 0.393832 -10.557394 -21.726513 3.336287 -1.907435 -44.895107 -1.520810 -3.648589 -12.055943 -0.115155 -1.080781 -0.000129 0.001007 0.001169 0.482886 0.584790 -7.816560 -9.655290 8.399539 -2.106622 -36.802788 -2.577054 -7.702949 -29.466791 -1.654173 -6.317881 0.001108 0.001707 0.001755 1.064457 -6.905789 -4.703651 -28.681755 9.775952 2.560515 -25.165577 0.489685 2.202407 -15.196466 0.171335 1.357860 0.001689 0.001512 -0.001081 -11.382933 8.163942 50.996235 -0.788964 6.308598 -0.538225 0.000000 0.000000 0.000000 -0.001705 0.000255 -0.000885 5.550195 -4.192588 1.036606 0.000240 0.001095 1.529232 0.000000 0.000000 -0.000000 -0.000000 0.000000 0.000000 -0.000000 0.000000 0.000000 0.000000 0.000000 0.000000 14.025441 -9.072751 0.895199 0.000522 0.000547 0.529069 -0.000000 -0.000000 -0.000000 0.000000 0.000000 0.000000 0.000000 -0.000000 0.000000 -0.000000 0.000000 -0.000000 
1.122829 0.180075 4.297180 -7.655624 17.880558 2.577088 9.219719 -1.363081 -0.311533 -0.138984 -0.144137 -2.917892 -0.146940 0.302413 -2.064410 1.129465 0.704723 6.516318 3.811180 0.586332 7.664016 -8.357548 4.813452 1.336032 -5.173062 1.218420 1.867677 -0.002569 -0.004178 -0.001298 7.560432 -12.302834 -1.631015 67.335648 0.945450 22.926964 179.995361 59.941223 163.131592 -4.355290 -18.140600 0.063701 38.961651 -7.829761 -0.002834 43.236572 0.000280 0.000071 22.888176 -0.000484 0.002735 0.000736 -0.002813 -0.001855 -1.754705 -1.622900 -5.141402 45.320099 -4.318796 -3.663361 50.631363 1.902205 -4.001215 20.844690 0.342586 -1.840722 0.000839 -0.000043 0.000352 -2.637716 -4.792032 -4.933760 32.953644 5.419354 -7.080535 54.538574 5.440485 -10.498841 38.051998 2.745640 -7.921853 -0.000181 -0.000086 -0.000563 -0.240924 7.427581 -1.336889 27.286974 -13.912920 2.472597 31.015078 -0.721204 2.665360 23.939608 -0.439798 2.097814 0.000832 0.000936 0.000061 7.280805 2.935191 51.696789 4.256809 -4.840916 0.960149 13.313519 -8.968151 3.291452 -0.002672 0.000841 -0.000445 -10.516404 7.612346 -1.408031 -60.513390 -0.449167 27.463011 179.998322 -48.360901 176.266434 -3.133582 22.889738 -0.015677 -31.922121 2.353843 -0.001738 -36.966434 -0.001226 -0.000745 -22.185089 0.001049 -0.000642 0.000727 0.000041 -0.000930 -0.037927 0.405177 -10.504207 -22.046144 3.345232 -1.934034 -44.915230 -1.521644 -3.650102 -12.021205 -0.114245 -1.077446 -0.000180 0.000826 0.001090 0.490692 0.597451 -7.777552 -9.816771 8.355215 -2.141264 -36.803173 -2.578642 -7.704169 -29.399509 -1.646766 -6.304541 0.001028 0.001561 0.001664 1.059273 -6.896731 -4.665985 -28.837179 9.824644 2.575200 -25.298315 0.494962 2.213539 -15.257595 0.173145 1.363462 0.001550 0.001701 -0.001200 -11.293340 7.990855 50.988617 -0.815239 6.278384 -0.523921 0.000000 0.000000 0.000000 -0.001622 0.000278 -0.000784 5.555187 -4.283462 1.200391 0.000331 0.001296 1.602005 0.000000 0.000000 -0.000000 -0.000000 0.000000 0.000000 -0.000000 0.000000 0.000000 0.000000 0.000000 0.000000 14.080839 -9.233678 0.902430 0.000517 0.000032 0.526696 -0.000000 -0.000000 -0.000000 0.000000 0.000000 0.000000 0.000000 -0.000000 0.000000 -0.000000 0.000000 -0.000000 
1.005726 0.179242 4.445488 -7.675927 18.114235 2.483794 9.124322 -1.373279 -0.493969 -0.159367 -0.137101 -2.930754 -0.168110 0.329128 -2.092011 1.130280 0.715033 6.491306 3.855242 0.436786 8.228433 -8.312392 4.696806 1.300442 -5.138746 1.207127 1.810923 -0.002403 -0.004288 -0.001398 7.656096 -12.204331 -1.635502 66.816307 3.078821 17.046925 179.995697 57.981705 157.024002 0.800015 -18.967432 0.048925 39.057152 -7.910480 -0.003477 43.441753 0.000143 0.000058 22.800341 -0.000476 0.002656 0.000406 -0.002837 -0.001907 -1.787600 -1.625405 -4.973962 45.461933 -4.264380 -3.672166 50.747871 1.910406 -4.007838 20.786320 0.340744 -1.835685 0.000787 0.000133 0.000687 -2.629425 -4.813918 -4.936797 32.989754 5.542815 -7.091780 54.608643 5.455049 -10.508389 38.171646 2.762106 -7.943057 -0.000005 -0.000077 -0.000417 -0.205869 7.416692 -1.272511 27.638971 -13.998349 2.503530 31.429302 -0.740558 2.697513 24.118755 -0.446834 2.112205 0.000957 0.001082 0.000104 7.247719 2.824916 51.846142 4.359800 -4.902752 0.986603 13.493497 -9.092820 3.325636 -0.002522 0.000620 -0.000700 -10.332519 7.555760 -1.371132 -60.465359 -3.460675 22.351767 179.997864 -47.251324 172.650055 -6.285070 21.227804 -0.030348 -32.054184 2.408100 -0.002045 -37.053070 -0.001178 -0.000769 -22.121790 0.001009 -0.000990 0.000573 0.000196 -0.000936 -0.018807 0.415584 -10.460607 -22.322130 3.352751 -1.956966 -44.944759 -1.523258 -3.652199 -11.999065 -0.113603 -1.075253 -0.000235 0.000652 0.001016 0.495604 0.611150 -7.738156 -9.956498 8.304303 -2.171284 -36.817074 -2.581710 -7.707646 -29.340103 -1.640183 -6.292783 0.000962 0.001443 0.001587 1.053180 -6.888078 -4.635351 -28.959410 9.876003 2.587065 -25.440598 0.500726 2.225374 -15.327932 0.175204 1.369809 0.001434 0.001863 -0.001299 -11.213550 7.822742 50.979660 -0.846546 6.255199 -0.508561 0.000000 0.000000 0.000000 -0.001540 0.000269 -0.000683 5.546163 -4.362280 1.341335 0.000361 0.001499 1.680147 0.000000 0.000000 -0.000000 0.000000 0.000000 0.000000 -0.000000 0.000000 0.000000 0.000000 0.000000 0.000000 14.126324 -9.349808 0.921937 0.000492 -0.000381 0.542276 -0.000000 -0.000000 -0.000000 0.000000 0.000000 0.000000 0.000000 -0.000000 0.000000 -0.000000 0.000000 -0.000000 
